<svg width="64" height="73" viewBox="0 0 64 73" fill="none" xmlns="http://www.w3.org/2000/svg">
<g clip-path="url(#clip0_776_4538)">
<path d="M20.5714 20.5312V27.375H43.4286V20.5312C43.4286 14.2293 38.3143 9.125 32 9.125C25.6857 9.125 20.5714 14.2293 20.5714 20.5312ZM11.4286 27.375V20.5312C11.4286 9.19629 20.6429 0 32 0C43.3571 0 52.5714 9.19629 52.5714 20.5312V27.375H54.8571C59.9 27.375 64 31.467 64 36.5V63.875C64 68.908 59.9 73 54.8571 73H9.14286C4.1 73 0 68.908 0 63.875V36.5C0 31.467 4.1 27.375 9.14286 27.375H11.4286Z" fill="#1F4A75"/>
<path d="M20.5714 20.5312V27.375H43.4286V20.5312C43.4286 14.2293 38.3143 9.125 32 9.125C25.6857 9.125 20.5714 14.2293 20.5714 20.5312ZM11.4286 27.375V20.5312C11.4286 9.19629 20.6429 0 32 0C43.3571 0 52.5714 9.19629 52.5714 20.5312V27.375H54.8571C59.9 27.375 64 31.467 64 36.5V63.875C64 68.908 59.9 73 54.8571 73H9.14286C4.1 73 0 68.908 0 63.875V36.5C0 31.467 4.1 27.375 9.14286 27.375H11.4286Z" fill="black" fill-opacity="0.2"/>
</g>
<defs>
<clipPath id="clip0_776_4538">
<rect width="64" height="73" fill="white"/>
</clipPath>
</defs>
</svg>
