<svg width="24" height="27" viewBox="0 0 24 27" fill="none" xmlns="http://www.w3.org/2000/svg">
<g clip-path="url(#clip0_776_4534)">
<path d="M7.71429 7.59375V10.125H16.2857V7.59375C16.2857 5.26289 14.3679 3.375 12 3.375C9.63214 3.375 7.71429 5.26289 7.71429 7.59375ZM4.28571 10.125V7.59375C4.28571 3.40137 7.74107 0 12 0C16.2589 0 19.7143 3.40137 19.7143 7.59375V10.125H20.5714C22.4625 10.125 24 11.6385 24 13.5V23.625C24 25.4865 22.4625 27 20.5714 27H3.42857C1.5375 27 0 25.4865 0 23.625V13.5C0 11.6385 1.5375 10.125 3.42857 10.125H4.28571Z" fill="#1F4A75"/>
<path d="M7.71429 7.59375V10.125H16.2857V7.59375C16.2857 5.26289 14.3679 3.375 12 3.375C9.63214 3.375 7.71429 5.26289 7.71429 7.59375ZM4.28571 10.125V7.59375C4.28571 3.40137 7.74107 0 12 0C16.2589 0 19.7143 3.40137 19.7143 7.59375V10.125H20.5714C22.4625 10.125 24 11.6385 24 13.5V23.625C24 25.4865 22.4625 27 20.5714 27H3.42857C1.5375 27 0 25.4865 0 23.625V13.5C0 11.6385 1.5375 10.125 3.42857 10.125H4.28571Z" fill="black" fill-opacity="0.2"/>
</g>
<defs>
<clipPath id="clip0_776_4534">
<rect width="24" height="27" fill="white"/>
</clipPath>
</defs>
</svg>
