<svg width="16" height="19" viewBox="0 0 16 19" fill="none" xmlns="http://www.w3.org/2000/svg">
<g clip-path="url(#clip0_776_4527)">
<path d="M8 9.14286C9.21242 9.14286 10.3752 8.66123 11.2325 7.80392C12.0898 6.94661 12.5714 5.78385 12.5714 4.57143C12.5714 3.35901 12.0898 2.19625 11.2325 1.33894C10.3752 0.481631 9.21242 0 8 0C6.78758 0 5.62482 0.481631 4.76751 1.33894C3.9102 2.19625 3.42857 3.35901 3.42857 4.57143C3.42857 5.78385 3.9102 6.94661 4.76751 7.80392C5.62482 8.66123 6.78758 9.14286 8 9.14286ZM6.36786 10.8571C2.85 10.8571 0 13.7071 0 17.225C0 17.8107 0.475 18.2857 1.06071 18.2857H14.9393C15.525 18.2857 16 17.8107 16 17.225C16 13.7071 13.15 10.8571 9.63214 10.8571H6.36786Z" fill="#1F4A75"/>
<path d="M8 9.14286C9.21242 9.14286 10.3752 8.66123 11.2325 7.80392C12.0898 6.94661 12.5714 5.78385 12.5714 4.57143C12.5714 3.35901 12.0898 2.19625 11.2325 1.33894C10.3752 0.481631 9.21242 0 8 0C6.78758 0 5.62482 0.481631 4.76751 1.33894C3.9102 2.19625 3.42857 3.35901 3.42857 4.57143C3.42857 5.78385 3.9102 6.94661 4.76751 7.80392C5.62482 8.66123 6.78758 9.14286 8 9.14286ZM6.36786 10.8571C2.85 10.8571 0 13.7071 0 17.225C0 17.8107 0.475 18.2857 1.06071 18.2857H14.9393C15.525 18.2857 16 17.8107 16 17.225C16 13.7071 13.15 10.8571 9.63214 10.8571H6.36786Z" fill="black" fill-opacity="0.2"/>
</g>
<defs>
<clipPath id="clip0_776_4527">
<rect width="16" height="18.2857" fill="white"/>
</clipPath>
</defs>
</svg>
