<svg width="64" height="73" viewBox="0 0 64 73" fill="none" xmlns="http://www.w3.org/2000/svg">
<g clip-path="url(#clip0_776_4536)">
<path d="M32 36.5C36.8497 36.5 41.5007 34.5772 44.93 31.1547C48.3592 27.7322 50.2857 23.0902 50.2857 18.25C50.2857 13.4098 48.3592 8.76784 44.93 5.3453C41.5007 1.92276 36.8497 0 32 0C27.1503 0 22.4993 1.92276 19.07 5.3453C15.6408 8.76784 13.7143 13.4098 13.7143 18.25C13.7143 23.0902 15.6408 27.7322 19.07 31.1547C22.4993 34.5772 27.1503 36.5 32 36.5ZM25.4714 43.3438C11.4 43.3438 0 54.7215 0 68.7654C0 71.1037 1.9 73 4.24286 73H59.7571C62.1 73 64 71.1037 64 68.7654C64 54.7215 52.6 43.3438 38.5286 43.3438H25.4714Z" fill="#1F4A75"/>
<path d="M32 36.5C36.8497 36.5 41.5007 34.5772 44.93 31.1547C48.3592 27.7322 50.2857 23.0902 50.2857 18.25C50.2857 13.4098 48.3592 8.76784 44.93 5.3453C41.5007 1.92276 36.8497 0 32 0C27.1503 0 22.4993 1.92276 19.07 5.3453C15.6408 8.76784 13.7143 13.4098 13.7143 18.25C13.7143 23.0902 15.6408 27.7322 19.07 31.1547C22.4993 34.5772 27.1503 36.5 32 36.5ZM25.4714 43.3438C11.4 43.3438 0 54.7215 0 68.7654C0 71.1037 1.9 73 4.24286 73H59.7571C62.1 73 64 71.1037 64 68.7654C64 54.7215 52.6 43.3438 38.5286 43.3438H25.4714Z" fill="black" fill-opacity="0.2"/>
</g>
<defs>
<clipPath id="clip0_776_4536">
<rect width="64" height="73" fill="white"/>
</clipPath>
</defs>
</svg>
