<svg width="24" height="21" viewBox="0 0 24 21" fill="none" xmlns="http://www.w3.org/2000/svg">
<g clip-path="url(#clip0_840_8569)">
<path d="M11.9999 1.3125C8.63327 1.3125 5.93744 2.82187 3.97494 4.61836C2.02493 6.39844 0.720768 8.53125 0.104102 9.99551C-0.0333984 10.3195 -0.0333984 10.6805 0.104102 11.0045C0.720768 12.4687 2.02493 14.6016 3.97494 16.3816C5.93744 18.1781 8.63327 19.6875 11.9999 19.6875C15.3666 19.6875 18.0624 18.1781 20.0249 16.3816C21.9749 14.5975 23.2791 12.4687 23.8999 11.0045C24.0374 10.6805 24.0374 10.3195 23.8999 9.99551C23.2791 8.53125 21.9749 6.39844 20.0249 4.61836C18.0624 2.82187 15.3666 1.3125 11.9999 1.3125ZM5.99994 10.5C5.99994 8.93357 6.63208 7.43129 7.75729 6.32365C8.88251 5.21601 10.4086 4.59375 11.9999 4.59375C13.5912 4.59375 15.1174 5.21601 16.2426 6.32365C17.3678 7.43129 17.9999 8.93357 17.9999 10.5C17.9999 12.0664 17.3678 13.5687 16.2426 14.6763C15.1174 15.784 13.5912 16.4062 11.9999 16.4062C10.4086 16.4062 8.88251 15.784 7.75729 14.6763C6.63208 13.5687 5.99994 12.0664 5.99994 10.5ZM11.9999 7.875C11.9999 9.32285 10.8041 10.5 9.33327 10.5C9.03744 10.5 8.7541 10.4508 8.48744 10.3646C8.25827 10.2908 7.9916 10.4303 7.99994 10.6682C8.01244 10.9512 8.0541 11.2342 8.13327 11.5172C8.7041 13.6172 10.8999 14.8641 13.0333 14.3021C15.1666 13.7402 16.4333 11.5787 15.8624 9.47871C15.3999 7.77656 13.8708 6.63223 12.1708 6.5625C11.9291 6.5543 11.7874 6.8127 11.8624 7.04238C11.9499 7.30488 11.9999 7.58379 11.9999 7.875Z" fill="#00987C"/>
</g>
<defs>
<clipPath id="clip0_840_8569">
<rect width="24" height="21" fill="white"/>
</clipPath>
</defs>
</svg>
