<svg width="196" height="196" viewBox="0 0 196 196" fill="none" xmlns="http://www.w3.org/2000/svg">
<g clip-path="url(#clip0_1310_6015)">
<path d="M0 98C0 72.0088 10.325 47.0821 28.7035 28.7035C47.0821 10.325 72.0088 0 98 0C123.991 0 148.918 10.325 167.296 28.7035C185.675 47.0821 196 72.0088 196 98C196 123.991 185.675 148.918 167.296 167.296C148.918 185.675 123.991 196 98 196C72.0088 196 47.0821 185.675 28.7035 167.296C10.325 148.918 0 123.991 0 98ZM122.5 134.75C122.5 124.452 116.184 115.648 107.188 112.049V33.6875C107.188 28.5961 103.091 24.5 98 24.5C92.9086 24.5 88.8125 28.5961 88.8125 33.6875V112.049C79.8164 115.686 73.5 124.491 73.5 134.75C73.5 148.263 84.4867 159.25 98 159.25C111.513 159.25 122.5 148.263 122.5 134.75ZM55.125 67.375C58.3739 67.375 61.4897 66.0844 63.7871 63.7871C66.0844 61.4897 67.375 58.3739 67.375 55.125C67.375 51.8761 66.0844 48.7603 63.7871 46.4629C61.4897 44.1656 58.3739 42.875 55.125 42.875C51.8761 42.875 48.7603 44.1656 46.4629 46.4629C44.1656 48.7603 42.875 51.8761 42.875 55.125C42.875 58.3739 44.1656 61.4897 46.4629 63.7871C48.7603 66.0844 51.8761 67.375 55.125 67.375ZM49 98C49 94.7511 47.7094 91.6353 45.4121 89.338C43.1147 87.0406 39.9989 85.75 36.75 85.75C33.5011 85.75 30.3853 87.0406 28.0879 89.338C25.7906 91.6353 24.5 94.7511 24.5 98C24.5 101.249 25.7906 104.365 28.0879 106.662C30.3853 108.959 33.5011 110.25 36.75 110.25C39.9989 110.25 43.1147 108.959 45.4121 106.662C47.7094 104.365 49 101.249 49 98ZM159.25 110.25C162.499 110.25 165.615 108.959 167.912 106.662C170.209 104.365 171.5 101.249 171.5 98C171.5 94.7511 170.209 91.6353 167.912 89.338C165.615 87.0406 162.499 85.75 159.25 85.75C156.001 85.75 152.885 87.0406 150.588 89.338C148.291 91.6353 147 94.7511 147 98C147 101.249 148.291 104.365 150.588 106.662C152.885 108.959 156.001 110.25 159.25 110.25ZM153.125 55.125C153.125 51.8761 151.834 48.7603 149.537 46.4629C147.24 44.1656 144.124 42.875 140.875 42.875C137.626 42.875 134.51 44.1656 132.213 46.4629C129.916 48.7603 128.625 51.8761 128.625 55.125C128.625 58.3739 129.916 61.4897 132.213 63.7871C134.51 66.0844 137.626 67.375 140.875 67.375C144.124 67.375 147.24 66.0844 149.537 63.7871C151.834 61.4897 153.125 58.3739 153.125 55.125Z" fill="white"/>
</g>
<defs>
<clipPath id="clip0_1310_6015">
<rect width="196" height="196" fill="white"/>
</clipPath>
</defs>
</svg>
