<svg width="196" height="196" viewBox="0 0 196 196" fill="none" xmlns="http://www.w3.org/2000/svg">
<g clip-path="url(#clip0_1310_6020)">
<path d="M134.75 122.5C168.591 122.5 196 95.0906 196 61.25C196 55.393 195.158 49.7273 193.627 44.3297C192.44 40.1953 187.348 39.2766 184.324 42.3008L154.924 71.7008C153.776 72.8492 152.206 73.5 150.598 73.5H128.625C125.256 73.5 122.5 70.7438 122.5 67.375V45.4016C122.5 43.7937 123.151 42.2242 124.299 41.0758L153.699 11.6758C156.723 8.65156 155.766 3.56016 151.67 2.37344C146.273 0.842187 140.607 0 134.75 0C100.909 0 73.5 27.4094 73.5 61.25C73.5 68.5617 74.8016 75.6055 77.1367 82.1133L7.61797 151.632C2.75625 156.494 0 163.116 0 170.007C0 184.363 11.6375 196 25.993 196C32.8836 196 39.5063 193.244 44.368 188.382L113.887 118.863C120.395 121.237 127.438 122.5 134.75 122.5ZM30.625 156.188C33.0617 156.188 35.3986 157.155 37.1215 158.878C38.8445 160.601 39.8125 162.938 39.8125 165.375C39.8125 167.812 38.8445 170.149 37.1215 171.872C35.3986 173.595 33.0617 174.562 30.625 174.562C28.1883 174.562 25.8514 173.595 24.1285 171.872C22.4055 170.149 21.4375 167.812 21.4375 165.375C21.4375 162.938 22.4055 160.601 24.1285 158.878C25.8514 157.155 28.1883 156.188 30.625 156.188Z" fill="white"/>
</g>
<defs>
<clipPath id="clip0_1310_6020">
<rect width="196" height="196" fill="white"/>
</clipPath>
</defs>
</svg>
