<svg width="32" height="32" viewBox="0 0 32 32" fill="none" xmlns="http://www.w3.org/2000/svg">
<circle cx="16" cy="16" r="10.6667" fill="#0A913E"/>
<path d="M16 28.8C8.93001 28.8 3.20001 23.07 3.20001 16C3.20001 8.93 8.93001 3.2 16 3.2C23.07 3.2 28.8 8.93 28.8 16C28.8 23.07 23.07 28.8 16 28.8ZM21.9 10.485C21.365 10.095 20.615 10.215 20.225 10.75L14.255 18.96L11.65 16.355C11.18 15.885 10.42 15.885 9.95501 16.355C9.49001 16.825 9.48501 17.585 9.95501 18.05L13.555 21.65C13.805 21.9 14.145 22.025 14.495 22C14.845 21.975 15.165 21.795 15.37 21.51L22.165 12.16C22.555 11.625 22.435 10.875 21.9 10.485Z" fill="#E7F2E9"/>
</svg>
