<svg version="1.1" xmlns="http://www.w3.org/2000/svg" width="100px" height="84px" transform="rotate(0) scale(1, 1)">
<path d="M0 0 C33 0 66 0 100 0 C100 27.72 100 55.44 100 84 C67 84 34 84 0 84 C0 56.28 0 28.56 0 0 Z " fill="#fdfdfe" transform="translate(0,0)"/>
<path d="M0 0 C1.42662964 -0.01418472 1.42662964 -0.01418472 2.88208008 -0.02865601 C3.90712646 -0.02258331 4.93217285 -0.01651062 5.98828125 -0.01025391 C7.04233154 -0.01312408 8.09638184 -0.01599426 9.18237305 -0.01895142 C11.41162656 -0.02099354 13.64089792 -0.01545339 15.87011719 -0.00292969 C19.28751593 0.01312129 22.7037319 -0.00277399 26.12109375 -0.02197266 C28.28515887 -0.01999025 30.44922325 -0.01614663 32.61328125 -0.01025391 C33.63832764 -0.0163266 34.66337402 -0.02239929 35.71948242 -0.02865601 C36.67056885 -0.01919952 37.62165527 -0.00974304 38.6015625 0 C39.43856689 0.00238678 40.27557129 0.00477356 41.13793945 0.00723267 C43.80198261 0.47646241 44.69399025 1.24388885 46.30078125 3.38818359 C46.61328125 5.95068359 46.61328125 5.95068359 46.30078125 8.38818359 C43.7913382 10.89762664 42.98314038 10.64068689 39.515625 10.64697266 C38.02397827 10.65642914 38.02397827 10.65642914 36.50219727 10.66607666 C35.42510498 10.6620282 34.3480127 10.65797974 33.23828125 10.65380859 C32.13605225 10.65572205 31.03382324 10.6576355 29.89819336 10.65960693 C27.56461357 10.66096972 25.23102622 10.65726682 22.89746094 10.64892578 C19.31558278 10.6382278 15.73420622 10.64881818 12.15234375 10.66162109 C9.8893218 10.66029952 7.62630017 10.65773716 5.36328125 10.65380859 C4.28618896 10.65785706 3.20909668 10.66190552 2.09936523 10.66607666 C1.10493408 10.65977234 0.11050293 10.65346802 -0.9140625 10.64697266 C-1.7918335 10.64538147 -2.66960449 10.64379028 -3.57397461 10.64215088 C-5.69921875 10.38818359 -5.69921875 10.38818359 -7.69921875 8.38818359 C-8.05776858 5.59149495 -8.19395158 4.04841446 -6.47338867 1.75228882 C-4.18274447 -0.00891775 -2.87173886 0.00818898 0 0 Z " fill="#5139b5" transform="translate(42.69921875,58.61181640625)"/>
<path d="M0 0 C1.28753174 0.00607269 1.28753174 0.00607269 2.60107422 0.01226807 C3.92147705 0.00939789 3.92147705 0.00939789 5.26855469 0.00646973 C7.13135056 0.00510755 8.99415591 0.00880625 10.85693359 0.01715088 C13.71457158 0.02785 16.57158088 0.01725675 19.42919922 0.00445557 C21.23649228 0.00577716 23.04378495 0.00833954 24.85107422 0.01226807 C25.70942871 0.0082196 26.5677832 0.00417114 27.45214844 0 C33.49615677 0.04797562 33.49615677 0.04797562 35.72607422 2.27789307 C36.03857422 4.71539307 36.03857422 4.71539307 35.72607422 7.27789307 C34.44287109 8.91477966 34.44287109 8.91477966 32.72607422 10.27789307 C29.81937969 10.56409588 27.13155023 10.67436099 24.22607422 10.64117432 C22.97793945 10.64192207 22.97793945 10.64192207 21.70458984 10.64268494 C19.946102 10.64034543 18.18761074 10.63062408 16.42919922 10.61407471 C13.73618657 10.59048166 11.04416395 10.59351456 8.35107422 10.60015869 C6.64273498 10.59458184 4.93439991 10.58747191 3.22607422 10.57867432 C2.41976562 10.57958572 1.61345703 10.58049713 0.78271484 10.58143616 C-3.08224557 10.53237252 -4.98496295 10.47053495 -8.27392578 8.27789307 C-8.58642578 5.27789307 -8.58642578 5.27789307 -8.27392578 2.27789307 C-5.61322373 -0.38280898 -3.619129 0.02872762 0 0 Z " fill="#5139b5" transform="translate(53.27392578125,34.72210693359375)"/>
<path d="M0 0 C1.24813477 -0.00642769 1.24813477 -0.00642769 2.52148438 -0.01298523 C4.27993866 -0.01872568 6.03841669 -0.01923088 7.796875 -0.01489258 C10.48999399 -0.0117305 13.18201668 -0.03520173 15.875 -0.06054688 C17.58333195 -0.06281966 19.29166685 -0.06352346 21 -0.0625 C21.80630859 -0.07170975 22.61261719 -0.08091949 23.44335938 -0.09040833 C29.06605372 -0.04376621 29.06605372 -0.04376621 31.21679688 1.66389465 C32.5 3.30078125 32.5 3.30078125 32.8125 5.86328125 C32.5 8.30078125 32.5 8.30078125 30.5 10.30078125 C27.51037897 10.50084427 24.6153765 10.58051048 21.625 10.56640625 C20.30459717 10.56927643 20.30459717 10.56927643 18.95751953 10.57220459 C17.09472366 10.57356677 15.23191831 10.56986807 13.36914062 10.56152344 C10.51150264 10.55082432 7.65449334 10.56141757 4.796875 10.57421875 C2.98958194 10.57289716 1.18228927 10.57033478 -0.625 10.56640625 C-1.48335449 10.57045471 -2.34170898 10.57450317 -3.22607422 10.57867432 C-9.27008255 10.5306987 -9.27008255 10.5306987 -11.5 8.30078125 C-11.8125 5.30078125 -11.8125 5.30078125 -11.5 2.30078125 C-7.65265102 -0.26411807 -4.46176675 -0.00504334 0 0 Z " fill="#5139b5" transform="translate(56.5,9.69921875)"/>
<path d="M0 0 C2.475 0.495 2.475 0.495 5 1 C4.60582687 6.68325981 2.98044977 10.11325656 -0.5625 14.4375 C-0.98724609 14.97826172 -1.41199219 15.51902344 -1.84960938 16.07617188 C-2.88745381 17.39388448 -3.94203699 18.6983849 -5 20 C-9.24871618 19.50750176 -11.08958225 18.40926002 -13.875 15.1875 C-14.49117187 14.50042969 -15.10734375 13.81335937 -15.7421875 13.10546875 C-17 11 -17 11 -16.6953125 8.73828125 C-16.46585938 8.16464844 -16.23640625 7.59101562 -16 7 C-13.75 6.3125 -13.75 6.3125 -11 6 C-9.68 6.99 -8.36 7.98 -7 9 C-4.69 6.03 -2.38 3.06 0 0 Z " fill="#5139b5" transform="translate(27,30)"/>
<path d="M0 0 C3.875 0.875 3.875 0.875 5 2 C5.525927 5.52307722 5.02476816 6.95747862 3.20703125 10.078125 C2.41683594 11.12484375 1.62664063 12.1715625 0.8125 13.25 C0.03519531 14.30703125 -0.74210937 15.3640625 -1.54296875 16.453125 C-4 19 -4 19 -6.52734375 20.0859375 C-9.94018055 19.9673239 -11.01468574 18.78796067 -13.375 16.375 C-14.08398438 15.68148438 -14.79296875 14.98796875 -15.5234375 14.2734375 C-17 12 -17 12 -16.7265625 9.2265625 C-16.48679687 8.49179688 -16.24703125 7.75703125 -16 7 C-14.3603125 7.2475 -14.3603125 7.2475 -12.6875 7.5 C-9.12474127 8.06718184 -9.12474127 8.06718184 -6 8 C-4.3122919 6.23598598 -4.3122919 6.23598598 -2.8125 4 C-2.28269531 3.2575 -1.75289062 2.515 -1.20703125 1.75 C-0.80871094 1.1725 -0.41039063 0.595 0 0 Z " fill="#5139b5" transform="translate(27,5)"/>
<path d="M0 0 C2.9375 0.75 2.9375 0.75 4.9375 2.75 C5.28240322 6.80261287 5.23913882 8.29754176 2.9375 11.75 C-0.48603094 12.1234761 -2.97310954 12.32873868 -6.0625 10.6875 C-7.69628851 7.52203476 -6.91517564 5.09979714 -6.0625 1.75 C-3.0625 -0.25 -3.0625 -0.25 0 0 Z " fill="#5139b5" transform="translate(21.0625,58.25)"/>
<path d="M0 0 C1.32 0.33 2.64 0.66 4 1 C-0.625 5 -0.625 5 -4 5 C-2.68 3.35 -1.36 1.7 0 0 Z " fill="#000000" transform="translate(27,5)"/>
</svg>