<?xml version="1.0" standalone="no"?>
<!DOCTYPE svg PUBLIC "-//W3C//DTD SVG 20010904//EN"
 "http://www.w3.org/TR/2001/REC-SVG-20010904/DTD/svg10.dtd">
<svg version="1.0" xmlns="http://www.w3.org/2000/svg"
 width="185.000000pt" height="115.000000pt" viewBox="0 0 185.000000 115.000000"
 preserveAspectRatio="xMidYMid meet">
<metadata>
Created by potrace 1.10, written by Peter Selinger 2001-2011
</metadata>
<g transform="translate(0.000000,115.000000) scale(0.100000,-0.100000)"
fill="#000000" stroke="none">
<path d="M533 617 c-271 -270 -323 -327 -323 -350 0 -21 15 -45 57 -88 90 -94
74 -102 370 193 l253 253 253 -253 c211 -211 257 -252 280 -252 21 0 44 15 85
54 93 89 108 65 -269 442 -281 281 -328 324 -354 324 -26 0 -73 -43 -352 -323z"/>
</g>
</svg>
