<svg version="1.1" xmlns="http://www.w3.org/2000/svg" width="27px" height="20px" transform="rotate(0) scale(1, 1)">
<path d="M0 0 C8.91 0 17.82 0 27 0 C27 6.6 27 13.2 27 20 C18.09 20 9.18 20 0 20 C0 13.4 0 6.8 0 0 Z " fill="#858796" transform="translate(0,0)"/>
<path d="M0 0 C0 2.97 0 5.94 0 9 C-5.28 9 -10.56 9 -16 9 C-16.33 7.68 -16.66 6.36 -17 5 C-18.48800372 2.7927642 -18.48800372 2.7927642 -20 1 C-16.85418896 0.83291073 -13.7083476 0.66639937 -10.5625 0.5 C-9.66466797 0.45230469 -8.76683594 0.40460937 -7.84179688 0.35546875 C-6.98779297 0.31035156 -6.13378906 0.26523438 -5.25390625 0.21875 C-4.46314697 0.17685547 -3.6723877 0.13496094 -2.85766602 0.09179688 C-1.90578081 0.04475931 -0.95304668 0 0 0 Z " fill="#fefefe" transform="translate(27,11)"/>
<path d="M0 0 C5.28 0 10.56 0 16 0 C16 2.97 16 5.94 16 9 C9.4 8.67 2.8 8.34 -4 8 C-2.68 6.35 -1.36 4.7 0 3 C0 2.01 0 1.02 0 0 Z " fill="#fefefe" transform="translate(11,0)"/>
<path d="M0 0 C3.63 0 7.26 0 11 0 C11 1.32 11 2.64 11 4 C10.01 4.99 9.02 5.98 8 7 C13.94 7.33 19.88 7.66 26 8 C26 8.33 26 8.66 26 9 C17.33333333 9 8.66666667 9 0 9 C0 6.03 0 3.06 0 0 Z " fill="#858796" transform="translate(0,0)"/>
<path d="M0 0 C6.75 5.625 6.75 5.625 9 9 C6.03 9 3.06 9 0 9 C0 6.03 0 3.06 0 0 Z " fill="#fcfcfd" transform="translate(0,11)"/>
<path d="M0 0 C2.97 0 5.94 0 9 0 C3.375 6.75 3.375 6.75 0 9 C0 6.03 0 3.06 0 0 Z " fill="#fcfcfd" transform="translate(0,0)"/>
</svg>