<svg width="32" height="32" viewBox="0 0 32 32" fill="none" xmlns="http://www.w3.org/2000/svg">
<rect x="0.5" y="0.5" width="31" height="31" rx="4.5" stroke="#C23030"/>
<path d="M10.8571 22.2222C10.8571 23.2 11.6286 24 12.5714 24H19.4286C20.3714 24 21.1429 23.2 21.1429 22.2222V11.5556H10.8571V22.2222ZM12.9657 15.8933L14.1743 14.64L16 16.5244L17.8171 14.64L19.0257 15.8933L17.2086 17.7778L19.0257 19.6622L17.8171 20.9156L16 19.0311L14.1829 20.9156L12.9743 19.6622L14.7914 17.7778L12.9657 15.8933ZM19 8.88889L18.1429 8H13.8571L13 8.88889H10V10.6667H22V8.88889H19Z" fill="#C23030"/>
</svg>
