<svg xmlns="http://www.w3.org/2000/svg" width="27" height="24" viewBox="0 0 27 24" fill="none">
<g clip-path="url(#clip0_840_8567)">
<path d="M0 3C0 1.34531 1.34531 0 3 0H10.5V6C10.5 6.82969 11.1703 7.5 12 7.5H18V13.3922L13.9313 17.4609C13.4484 17.9438 13.1109 18.5438 12.9469 19.2047L12.0703 22.7156C11.9625 23.1469 11.9859 23.5969 12.1312 24.0047L3 24C1.34531 24 0 22.6547 0 21V3ZM18 6H12V0L18 6ZM25.7719 11.0484L26.4469 11.7234C27.1781 12.4547 27.1781 13.6406 26.4469 14.3766L25.0687 15.7547L21.7406 12.4266L23.1188 11.0484C23.85 10.3172 25.0359 10.3172 25.7719 11.0484ZM14.6203 19.5469L20.6766 13.4906L24.0047 16.8187L17.9484 22.8703C17.7562 23.0625 17.5172 23.1984 17.25 23.2641L14.4328 23.9672C14.175 24.0328 13.9078 23.9578 13.7203 23.7703C13.5328 23.5828 13.4578 23.3156 13.5234 23.0578L14.2266 20.2406C14.2922 19.9781 14.4281 19.7344 14.6203 19.5422V19.5469Z" fill="#2f96b2"/>
</g>
<defs fill="#000000">
<clipPath id="clip0_840_8567" fill="#000000">
<rect width="27" height="24" fill="white"/>
</clipPath>
</defs>
</svg>