<svg width="32" height="32" viewBox="0 0 32 32" fill="none" xmlns="http://www.w3.org/2000/svg">
<rect x="0.5" y="0.5" width="31" height="31" rx="4.5" stroke="#1A538C"/>
<g clip-path="url(#clip0_840_8497)">
<path d="M8 10.75C8 9.78477 8.78477 9 9.75 9H14.125V12.5C14.125 12.984 14.516 13.375 15 13.375H18.5V16.8121L16.1266 19.1855C15.8449 19.4672 15.648 19.8172 15.5523 20.2027L15.041 22.2508C14.9781 22.5023 14.9918 22.7648 15.0766 23.0027L9.75 23C8.78477 23 8 22.2152 8 21.25V10.75ZM18.5 12.5H15V9L18.5 12.5ZM23.0336 15.4449L23.4273 15.8387C23.8539 16.2652 23.8539 16.957 23.4273 17.3863L22.6234 18.1902L20.682 16.2488L21.4859 15.4449C21.9125 15.0184 22.6043 15.0184 23.0336 15.4449ZM16.5285 20.4023L20.0613 16.8695L22.0027 18.8109L18.4699 22.341C18.3578 22.4531 18.2184 22.5324 18.0625 22.5707L16.4191 22.9809C16.2688 23.0191 16.1129 22.9754 16.0035 22.866C15.8941 22.7566 15.8504 22.6008 15.8887 22.4504L16.2988 20.807C16.3371 20.6539 16.4164 20.5117 16.5285 20.3996V20.4023Z" fill="#1A538C"/>
</g>
<defs>
<clipPath id="clip0_840_8497">
<rect width="15.75" height="14" fill="white" transform="translate(8 9)"/>
</clipPath>
</defs>
</svg>
