<svg version="1.1" xmlns="http://www.w3.org/2000/svg" width="27px" height="26px" transform="rotate(0) scale(1, 1)">
<path d="M0 0 C8.91 0 17.82 0 27 0 C27 8.58 27 17.16 27 26 C18.09 26 9.18 26 0 26 C0 17.42 0 8.84 0 0 Z " fill="#e74a3b" transform="translate(0,0)"/>
<path d="M0 0 C0 7.59 0 15.18 0 23 C-0.66 21.68 -1.32 20.36 -2 19 C-3.32774288 17.5389496 -4.70631676 16.12291926 -6.125 14.75 C-6.84945313 14.04359375 -7.57390625 13.3371875 -8.3203125 12.609375 C-8.87460937 12.07828125 -9.42890625 11.5471875 -10 11 C-8.59698853 7.81326038 -6.92234929 5.67778594 -4.4375 3.25 C-3.81746094 2.63640625 -3.19742187 2.0228125 -2.55859375 1.390625 C-1 0 -1 0 0 0 Z " fill="#f4f5f6" transform="translate(27,3)"/>
<path d="M0 0 C7 6 7 6 10 9 C8.62442924 12.17971131 7.10041354 14.04850989 4.4375 16.25 C3.81746094 16.77078125 3.19742187 17.2915625 2.55859375 17.828125 C1 19 1 19 0 19 C0 12.73 0 6.46 0 0 Z " fill="#f0f2f4" transform="translate(0,3)"/>
<path d="M0 0 C1.10865985 0.91122727 2.21172219 1.82926659 3.3125 2.75 C3.92738281 3.26046875 4.54226562 3.7709375 5.17578125 4.296875 C7 6 7 6 10 10 C3.73 10 -2.54 10 -9 10 C-3 3 -3 3 0 0 Z " fill="#fefefe" transform="translate(13,16)"/>
<path d="M0 0 C6.27 0 12.54 0 19 0 C12.25 7.875 12.25 7.875 9 10 C7.49702124 8.52386015 5.99768715 7.04400843 4.5 5.5625 C3.6646875 4.73878906 2.829375 3.91507812 1.96875 3.06640625 C0 1 0 1 0 0 Z " fill="#fefefe" transform="translate(4,0)"/>
</svg>