<svg version="1.1" xmlns="http://www.w3.org/2000/svg" width="175px" height="174px" transform="rotate(0) scale(1, 1)">
<path d="M0 0 C57.75 0 115.5 0 175 0 C175 57.42 175 114.84 175 174 C117.25 174 59.5 174 0 174 C0 116.58 0 59.16 0 0 Z " fill="#1cc88a" transform="translate(0,0)"/>
<path d="M0 0 C54.12 0 108.24 0 164 0 C161.42281896 1.71812069 159.50201466 2.64956507 156.63525391 3.66967773 C155.29738831 4.14918633 155.29738831 4.14918633 153.93249512 4.63838196 C152.95703735 4.98330185 151.98157959 5.32822174 150.9765625 5.68359375 C149.43530701 6.2341468 149.43530701 6.2341468 147.86291504 6.79582214 C144.45159854 8.01345726 141.03828467 9.22539422 137.625 10.4375 C135.22754492 11.29236609 132.83024907 12.14767885 130.43310547 13.00341797 C126.07299606 14.55952205 121.71250958 16.11455433 117.35133553 17.6676712 C109.67944714 20.39984207 102.01055141 23.14030404 94.34375 25.88671875 C93.24445663 26.2804921 92.14516327 26.67426544 91.01255798 27.07997131 C85.53035256 29.04442047 80.04897885 31.01116391 74.56860352 32.98071289 C72.39080082 33.76321994 70.2129851 34.54569074 68.03515625 35.328125 C66.96495743 35.7127037 65.89475861 36.09728241 64.79212952 36.49351501 C58.13640798 38.88254374 51.47367164 41.25084602 44.80554199 43.60501099 C40.42911593 45.15192225 36.05618312 46.70855264 31.68377686 48.26678467 C29.62537319 48.99762484 27.56538042 49.72400678 25.50372314 50.44561768 C22.66622263 51.43923689 19.83465935 52.44828432 17.00390625 53.4609375 C16.17523544 53.74660583 15.34656464 54.03227417 14.49278259 54.32659912 C9.43058032 56.15975993 5.87201399 58.22689775 2 62 C1.10769618 64.23158188 1.10769618 64.23158188 1.3125 66.5 C1.30863281 67.2321875 1.30476562 67.964375 1.30078125 68.71875 C2.61644234 73.0111862 6.01161687 75.47337896 9.86474609 77.52636719 C11.42829834 78.15526855 11.42829834 78.15526855 13.0234375 78.796875 C14.7866333 79.51677612 14.7866333 79.51677612 16.58544922 80.2512207 C17.84836018 80.75150258 19.11154995 81.25108115 20.375 81.75 C21.67366426 82.27157253 22.97200114 82.79396089 24.27001953 83.31713867 C26.90254224 84.37581081 29.53810008 85.42642053 32.17578125 86.47216797 C35.7263619 87.88380291 39.25490845 89.34517546 42.78125 90.81640625 C44.81215141 91.64928801 46.84338179 92.48136824 48.875 93.3125 C49.79974121 93.7034082 50.72448242 94.09431641 51.67724609 94.49707031 C56.81739506 96.55847925 60.51981445 97.78984682 66 96 C68.48488777 94.40081121 70.594129 92.51357738 72.75 90.5 C73.98083095 89.39738742 75.21261163 88.29583414 76.4453125 87.1953125 C77.04762695 86.65036133 77.64994141 86.10541016 78.27050781 85.54394531 C81.50344012 82.65785498 84.89272312 79.96537115 88.265625 77.24609375 C90.26909527 75.60038603 92.2272664 73.935064 94.171875 72.22265625 C94.70603027 71.75875488 95.24018555 71.29485352 95.79052734 70.81689453 C97.29197004 69.5097834 98.78302679 68.19077008 100.2734375 66.87109375 C103.23123123 64.8413184 104.50013245 64.38060763 108 65 C110 67 110 67 110.45703125 69.22265625 C109.79356295 73.25450206 107.37464504 75.53814737 104.6875 78.4375 C103.57944441 79.67738054 102.47403997 80.91963469 101.37109375 82.1640625 C100.8076123 82.79731445 100.24413086 83.43056641 99.66357422 84.08300781 C96.58508471 87.63045419 93.74261875 91.36084069 90.89013672 95.09057617 C87.68336888 99.24690948 84.23019522 102.98218476 80.36328125 106.546875 C77.86465749 111.04296589 78.34511967 116.50848658 79.63090515 121.40029907 C80.51971102 123.82962204 81.50250444 126.19031028 82.54296875 128.55859375 C82.90844315 129.42839371 83.27391754 130.29819366 83.65046692 131.1943512 C84.81293122 133.94944055 85.99977207 136.69322208 87.1875 139.4375 C87.96579601 141.27340968 88.74250221 143.10999418 89.51757812 144.94726562 C91.3356641 149.24387683 93.18326089 153.5267676 95.04779053 157.80340576 C95.88715172 159.73967716 96.70797539 161.68396194 97.52587891 163.62939453 C97.94659668 164.6089209 98.36731445 165.58844727 98.80078125 166.59765625 C99.13891846 167.39824463 99.47705566 168.19883301 99.82543945 169.02368164 C101.11921541 171.48646654 101.11921541 171.48646654 105 174 C70.35 174 35.7 174 0 174 C0 116.58 0 59.16 0 0 Z " fill="#fefefe" transform="translate(0,0)"/>
<path d="M0 0 C0.33 0 0.66 0 1 0 C1 53.79 1 107.58 1 163 C-19.79 163 -40.58 163 -62 163 C-60.02 160.69 -58.04 158.38 -56 156 C-54.65586247 153.58834461 -54.65586247 153.58834461 -53.89770508 151.20141602 C-53.58750931 150.32683243 -53.27731354 149.45224884 -52.9577179 148.55116272 C-52.6481163 147.62806808 -52.33851471 146.70497345 -52.01953125 145.75390625 C-51.67999924 144.78396225 -51.34046722 143.81401825 -50.99064636 142.81468201 C-49.91637826 139.73555098 -48.86401373 136.64946628 -47.8125 133.5625 C-47.09587292 131.4936302 -46.37778706 129.42526509 -45.65820312 127.35742188 C-44.33431305 123.5506903 -43.02048468 119.74075135 -41.71411133 115.92797852 C-40.21839618 111.58770104 -38.62534148 107.29331774 -37 103 C-36.2677543 100.9786122 -35.541158 98.95516871 -34.8203125 96.9296875 C-34.39008789 95.72151367 -33.95986328 94.51333984 -33.51660156 93.26855469 C-33.01095715 91.84574241 -32.5054329 90.42288743 -32 89 C-31.70492554 88.16956177 -31.40985107 87.33912354 -31.10583496 86.48352051 C-29.40999839 81.71051062 -27.71473286 76.93729793 -26.01953125 72.1640625 C-25.66713379 71.17180664 -25.31473633 70.17955078 -24.95166016 69.15722656 C-24.23009861 67.12507362 -23.5087466 65.09284627 -22.78759766 63.06054688 C-21.73143981 60.08440575 -20.6743886 57.10858317 -19.6171875 54.1328125 C-19.13897049 52.78414597 -19.13897049 52.78414597 -18.65109253 51.40823364 C-16.81823284 46.25190011 -14.93225796 41.11990402 -13 36 C-12.26557502 33.96021895 -11.53636679 31.91855173 -10.8125 29.875 C-7.26152987 19.8974275 -3.62630788 9.95038338 0 0 Z " fill="#fdfdfd" transform="translate(174,11)"/>
<path d="M0 0 C1.98 0 3.96 0 6 0 C6 1.98 6 3.96 6 6 C3.97945196 4.35830472 1.97956942 2.69088222 0 1 C0 0.67 0 0.34 0 0 Z " fill="#f7f8f9" transform="translate(169,0)"/>
</svg>