<svg width="32" height="32" viewBox="0 0 32 32" fill="none" xmlns="http://www.w3.org/2000/svg">
<rect x="0.5" y="0.5" width="31" height="31" rx="4.5" fill="#00987C" stroke="#00987C"/>
<g clip-path="url(#clip0_841_8584)">
<rect width="16" height="14" transform="translate(8 9)" fill="#00987C"/>
<path d="M16 9.875C13.7556 9.875 11.9583 10.8813 10.65 12.0789C9.35 13.2656 8.48056 14.6875 8.06944 15.6637C7.97778 15.8797 7.97778 16.1203 8.06944 16.3363C8.48056 17.3125 9.35 18.7344 10.65 19.9211C11.9583 21.1187 13.7556 22.125 16 22.125C18.2444 22.125 20.0417 21.1187 21.35 19.9211C22.65 18.7316 23.5194 17.3125 23.9333 16.3363C24.025 16.1203 24.025 15.8797 23.9333 15.6637C23.5194 14.6875 22.65 13.2656 21.35 12.0789C20.0417 10.8813 18.2444 9.875 16 9.875ZM12 16C12 14.9557 12.4214 13.9542 13.1716 13.2158C13.9217 12.4773 14.9391 12.0625 16 12.0625C17.0609 12.0625 18.0783 12.4773 18.8284 13.2158C19.5786 13.9542 20 14.9557 20 16C20 17.0443 19.5786 18.0458 18.8284 18.7842C18.0783 19.5227 17.0609 19.9375 16 19.9375C14.9391 19.9375 13.9217 19.5227 13.1716 18.7842C12.4214 18.0458 12 17.0443 12 16ZM16 14.25C16 15.2152 15.2028 16 14.2222 16C14.025 16 13.8361 15.9672 13.6583 15.9098C13.5056 15.8605 13.3278 15.9535 13.3333 16.1121C13.3417 16.3008 13.3694 16.4895 13.4222 16.6781C13.8028 18.0781 15.2667 18.9094 16.6889 18.5348C18.1111 18.1602 18.9556 16.7191 18.575 15.3191C18.2667 14.1844 17.2472 13.4215 16.1139 13.375C15.9528 13.3695 15.8583 13.5418 15.9083 13.6949C15.9667 13.8699 16 14.0559 16 14.25Z" fill="white"/>
</g>
<defs>
<clipPath id="clip0_841_8584">
<rect width="16" height="14" fill="white" transform="translate(8 9)"/>
</clipPath>
</defs>
</svg>
