<svg width="196" height="193" viewBox="0 0 196 193" fill="none" xmlns="http://www.w3.org/2000/svg">
<g clip-path="url(#clip0_1311_6032)">
<path d="M81.1035 6.75862C74.6948 6.75862 69.5173 11.9362 69.5173 18.3448V25.2966C43.0862 30.6552 23.1724 54.0448 23.1724 82.069V88.8759C23.1724 105.893 16.9086 122.331 5.6121 135.076L2.93279 138.081C-0.108593 141.484 -0.832731 146.372 1.01382 150.536C2.86037 154.7 7.02416 157.379 11.5862 157.379H150.621C155.183 157.379 159.31 154.7 161.193 150.536C163.076 146.372 162.316 141.484 159.274 138.081L156.595 135.076C145.298 122.331 139.035 105.929 139.035 88.8759V82.069C139.035 54.0448 119.121 30.6552 92.6897 25.2966V18.3448C92.6897 11.9362 87.5121 6.75862 81.1035 6.75862ZM97.5052 185.367C101.85 181.022 104.276 175.121 104.276 168.966H81.1035H57.9311C57.9311 175.121 60.3569 181.022 64.7017 185.367C69.0466 189.712 74.9483 192.138 81.1035 192.138C87.2586 192.138 93.1604 189.712 97.5052 185.367Z" fill="#1F4A75"/>
<ellipse cx="141.931" cy="54.069" rx="67.5862" ry="67.5862" fill="white"/>
</g>
<circle cx="141.931" cy="54.069" r="54.069" fill="#C23030"/>
<defs>
<clipPath id="clip0_1311_6032">
<rect width="162.207" height="185.379" fill="white" transform="translate(0 6.75862)"/>
</clipPath>
</defs>
</svg>
